<svg version="1.1" xmlns="http://www.w3.org/2000/svg" xmlns:xlink="http://www.w3.org/1999/xlink" width="1200" height="800"><defs/><g transform="scale(2,2)"><g id="background-5a5947a2"><rect fill="white" stroke="none" x="0" y="0" width="600" height="400" class="dcg-svg-background"/></g><g id="graphpaper-5a5947a2"><g id="axis-5a5947a2"><g id="yaxis-5a5947a2"><title>Value</title><g><path fill="none" stroke="rgb(0,0,0)" class="dcg-svg-axis-line" paint-order="fill stroke markers" d=" M 29 4 L 29 400" stroke-opacity="0.9" stroke-miterlimit="10" stroke-width="2" stroke-dasharray=""/><g class="dcg-svg-axis-line"><path fill="rgb(0,0,0)" stroke="rgb(0,0,0)" class="dcg-svg-axis-line" paint-order="stroke fill markers" d=" M 29 2 L 33.14110472164033 17.45481322062509 L 24.858895278359668 17.45481322062509 L 29 2 L 33.14110472164033 17.45481322062509" stroke-opacity="0.9" stroke-linejoin="round" stroke-miterlimit="10" stroke-width="2" stroke-dasharray="" fill-opacity="0.9"/></g></g></g><g id="xaxis-5a5947a2"><title>time and effort</title><g><path fill="none" stroke="rgb(0,0,0)" class="dcg-svg-axis-line" paint-order="fill stroke markers" d=" M 0 378 L 596 378" stroke-opacity="0.9" stroke-miterlimit="10" stroke-width="2" stroke-dasharray=""/><g class="dcg-svg-axis-line"><path fill="rgb(0,0,0)" stroke="rgb(0,0,0)" class="dcg-svg-axis-line" paint-order="stroke fill markers" d=" M 598 378 L 582.545186779375 382.1411047216403 L 582.545186779375 373.8588952783597 L 598 378 L 582.545186779375 382.1411047216403" stroke-opacity="0.9" stroke-linejoin="round" stroke-miterlimit="10" stroke-width="2" stroke-dasharray="" fill-opacity="0.9"/></g></g></g><g><g><path fill="none" stroke="rgb(0,0,0)" class="dcg-svg-tickmark" paint-order="fill stroke markers" d="" stroke-opacity="0.9" stroke-miterlimit="2" stroke-width="2" stroke-dasharray=""/></g></g><g class="dcg-svg-axis-label"><text fill="none" stroke="#ffffff" font-family="Arial" font-size="20px" font-style="normal" font-weight="normal" text-decoration="normal" x="457.51953125" y="395.77777777777777" text-anchor="start" stroke-miterlimit="2" stroke-width="3" stroke-dasharray="">time and effort</text><text fill="#000000" stroke="none" font-family="Arial" font-size="20px" font-style="normal" font-weight="normal" text-decoration="normal" x="457.51953125" y="395.77777777777777" text-anchor="start">time and effort</text></g><g class="dcg-svg-axis-label" transform="translate(19.071428571428555,64.66796875) rotate(-90,0,0)"><text fill="none" stroke="#ffffff" font-family="Arial" font-size="20px" font-style="normal" font-weight="normal" text-decoration="normal" x="0" y="0" text-anchor="start" stroke-miterlimit="2" stroke-width="3" stroke-dasharray="">Value</text><text fill="#000000" stroke="none" font-family="Arial" font-size="20px" font-style="normal" font-weight="normal" text-decoration="normal" x="0" y="0" text-anchor="start">Value</text></g></g></g><g id="expressions-5a5947a2"><g id="sketch-5a5947a2"><title>Expression 1</title><path fill="#000000" stroke="none" paint-order="stroke fill markers" d="" fill-opacity="0.4"/><g><path fill="none" stroke="#000000" class="dcg-svg-curve" paint-order="fill stroke markers" d=" M 28.571428571428555 44.44444444444446 L 28.627428571428556 44.44444444444446 M 33.10742857142856 44.44444444444446 L 33.163428571428554 44.44444444444446 M 37.64342857142855 44.44444444444446 L 37.69942857142855 44.44444444444446 M 42.179428571428545 44.44444444444446 L 42.23542857142854 44.44444444444446 M 46.71542857142854 44.44444444444446 L 46.77142857142854 44.44444444444446 M 51.251428571428534 44.44444444444446 L 51.30742857142853 44.44444444444446 M 55.78742857142853 44.44444444444446 L 55.843428571428525 44.44444444444446 M 60.32342857142852 44.44444444444446 L 60.37942857142852 44.44444444444446 M 64.85942857142852 44.44444444444446 L 64.91542857142852 44.44444444444446 M 69.39542857142852 44.44444444444446 L 69.45142857142852 44.44444444444446 M 73.93142857142853 44.44444444444446 L 73.98742857142852 44.44444444444446 M 78.46742857142853 44.44444444444446 L 78.52342857142852 44.44444444444446 M 83.00342857142853 44.44444444444446 L 83.05942857142853 44.44444444444446 M 87.53942857142853 44.44444444444446 L 87.59542857142853 44.44444444444446 M 92.07542857142853 44.44444444444446 L 92.13142857142853 44.44444444444446 M 96.61142857142853 44.44444444444446 L 96.66742857142853 44.44444444444446 M 101.14742857142853 44.44444444444446 L 101.20342857142853 44.44444444444446 M 105.68342857142854 44.44444444444446 L 105.73942857142853 44.44444444444446 M 110.21942857142854 44.44444444444446 L 110.27542857142853 44.44444444444446 M 114.75542857142854 44.44444444444446 L 114.81142857142854 44.44444444444446 M 119.29142857142854 44.44444444444446 L 119.34742857142854 44.44444444444446 M 123.82742857142854 44.44444444444446 L 123.88342857142854 44.44444444444446 M 128.36342857142853 44.44444444444446 L 128.41942857142854 44.44444444444446 M 132.89942857142853 44.44444444444446 L 132.95542857142854 44.44444444444446 M 137.43542857142853 44.44444444444446 L 137.49142857142854 44.44444444444446 M 141.97142857142853 44.44444444444446 L 142.02742857142854 44.44444444444446 M 146.50742857142853 44.44444444444446 L 146.56342857142855 44.44444444444446 M 151.04342857142854 44.44444444444446 L 151.09942857142855 44.44444444444446 M 155.57942857142854 44.44444444444446 L 155.63542857142855 44.44444444444446 M 160.11542857142854 44.44444444444446 L 160.17142857142855 44.44444444444446 M 164.65142857142854 44.44444444444446 L 164.70742857142855 44.44444444444446 M 169.18742857142854 44.44444444444446 L 169.24342857142855 44.44444444444446 M 173.72342857142854 44.44444444444446 L 173.77942857142855 44.44444444444446 M 178.25942857142854 44.44444444444446 L 178.31542857142855 44.44444444444446 M 182.79542857142854 44.44444444444446 L 182.85142857142856 44.44444444444446 M 187.33142857142855 44.44444444444446 L 187.38742857142856 44.44444444444446 M 191.86742857142855 44.44444444444446 L 191.92342857142856 44.44444444444446 M 196.40342857142855 44.44444444444446 L 196.45942857142856 44.44444444444446 M 200.93942857142855 44.44444444444446 L 200.99542857142856 44.44444444444446 M 205.47542857142855 44.44444444444446 L 205.53142857142856 44.44444444444446 M 210.01142857142855 44.44444444444446 L 210.06742857142856 44.44444444444446 M 214.54742857142855 44.44444444444446 L 214.60342857142857 44.44444444444446 M 219.08342857142856 44.44444444444446 L 219.13942857142857 44.44444444444446 M 223.61942857142856 44.44444444444446 L 223.67542857142857 44.44444444444446 M 228.15542857142856 44.44444444444446 L 228.21142857142857 44.44444444444446 M 232.69142857142856 44.44444444444446 L 232.74742857142857 44.44444444444446 M 237.22742857142856 44.44444444444446 L 237.28342857142857 44.44444444444446 M 241.76342857142856 44.44444444444446 L 241.81942857142857 44.44444444444446 M 246.29942857142856 44.44444444444446 L 246.35542857142858 44.44444444444446 M 250.83542857142857 44.44444444444446 L 250.89142857142858 44.44444444444446 M 255.37142857142857 44.44444444444446 L 255.42742857142858 44.44444444444446 M 259.90742857142857 44.44444444444446 L 259.96342857142855 44.44444444444446 M 264.44342857142857 44.44444444444446 L 264.49942857142855 44.44444444444446 M 268.97942857142857 44.44444444444446 L 269.03542857142855 44.44444444444446 M 273.5154285714286 44.44444444444446 L 273.57142857142856 44.44444444444446 M 278.0514285714286 44.44444444444446 L 278.10742857142856 44.44444444444446 M 282.5874285714286 44.44444444444446 L 282.64342857142856 44.44444444444446 M 287.1234285714286 44.44444444444446 L 287.17942857142856 44.44444444444446 M 291.6594285714286 44.44444444444446 L 291.71542857142856 44.44444444444446 M 296.1954285714286 44.44444444444446 L 296.25142857142856 44.44444444444446 M 300.7314285714286 44.44444444444446 L 300.78742857142856 44.44444444444446 M 305.2674285714286 44.44444444444446 L 305.32342857142856 44.44444444444446 M 309.8034285714286 44.44444444444446 L 309.85942857142857 44.44444444444446 M 314.3394285714286 44.44444444444446 L 314.39542857142857 44.44444444444446 M 318.8754285714286 44.44444444444446 L 318.93142857142857 44.44444444444446 M 323.4114285714286 44.44444444444446 L 323.46742857142857 44.44444444444446 M 327.9474285714286 44.44444444444446 L 328.00342857142857 44.44444444444446 M 332.4834285714286 44.44444444444446 L 332.5394285714286 44.44444444444446 M 337.0194285714286 44.44444444444446 L 337.0754285714286 44.44444444444446 M 341.5554285714286 44.44444444444446 L 341.6114285714286 44.44444444444446 M 346.0914285714286 44.44444444444446 L 346.1474285714286 44.44444444444446 M 350.6274285714286 44.44444444444446 L 350.6834285714286 44.44444444444446 M 355.1634285714286 44.44444444444446 L 355.2194285714286 44.44444444444446 M 359.6994285714286 44.44444444444446 L 359.7554285714286 44.44444444444446 M 364.2354285714286 44.44444444444446 L 364.2914285714286 44.44444444444446 M 368.7714285714286 44.44444444444446 L 368.8274285714286 44.44444444444446 M 373.3074285714286 44.44444444444446 L 373.3634285714286 44.44444444444446 M 377.8434285714286 44.44444444444446 L 377.8994285714286 44.44444444444446 M 382.3794285714286 44.44444444444446 L 382.4354285714286 44.44444444444446 M 386.9154285714286 44.44444444444446 L 386.9714285714286 44.44444444444446 M 391.4514285714286 44.44444444444446 L 391.5074285714286 44.44444444444446 M 395.9874285714286 44.44444444444446 L 396.0434285714286 44.44444444444446 M 400.5234285714286 44.44444444444446 L 400.5794285714286 44.44444444444446 M 405.0594285714286 44.44444444444446 L 405.1154285714286 44.44444444444446 M 409.5954285714286 44.44444444444446 L 409.6514285714286 44.44444444444446 M 414.1314285714286 44.44444444444446 L 414.1874285714286 44.44444444444446 M 418.6674285714286 44.44444444444446 L 418.7234285714286 44.44444444444446 M 423.2034285714286 44.44444444444446 L 423.2594285714286 44.44444444444446 M 427.7394285714286 44.44444444444446 L 427.7954285714286 44.44444444444446 M 432.2754285714286 44.44444444444446 L 432.3314285714286 44.44444444444446 M 436.8114285714286 44.44444444444446 L 436.8674285714286 44.44444444444446 M 441.3474285714286 44.44444444444446 L 441.4034285714286 44.44444444444446" stroke-linecap="round" stroke-linejoin="round" stroke-miterlimit="10" stroke-width="2.8" stroke-dasharray=""/></g></g><g id="sketch-5a5947a2"><title>Expression 2</title><path fill="#c74440" stroke="none" paint-order="stroke fill markers" d="" fill-opacity="0.4"/><g><path fill="none" stroke="#c74440" class="dcg-svg-curve" paint-order="fill stroke markers" d=" M 22.723990172690037 405.8 L 24.902343749999982 394.53026648357803 M 24.902343749999982 394.53026648357803 L 25.079673365419065 393.707491711779 M 26.731470834905608 386.04347415440105 L 27.685546874999982 381.6167477200581 M 27.685546874999982 381.6167477200581 L 29.500626383787807 374.03948387475145 M 31.384124747074196 366.4296032686153 L 33.984374999999986 356.63154389649685 M 33.984374999999986 356.63154389649685 L 34.59702091033849 354.53650570836265 M 36.797493805058295 347.01164564058706 L 37.353515624999986 345.11024235598813 M 37.353515624999986 345.11024235598813 L 40.51057833949114 335.26508221738493 M 43.07183509475858 327.85562333643253 L 44.531249999999986 323.6872674345201 M 44.531249999999986 323.6872674345201 L 47.347438159418076 316.30247945794537 M 50.264102671572374 309.02603911871466 L 52.587890624999986 303.4184766469959 M 52.587890624999986 303.4184766469959 L 55.14630315392672 297.71609271281477 M 58.45513083935955 290.60948741242566 L 61.376953124999986 284.5813634167561 M 61.376953124999986 284.5813634167561 L 63.982583033786554 279.60066015462934 M 67.69962587140405 272.6988413510894 L 71.19140624999999 266.5012555035346 M 71.19140624999999 266.5012555035346 L 73.88797119398986 262.04753189061114 M 78.02591043003908 255.38956200320146 L 82.03124999999999 249.22675040253134 M 82.03124999999999 249.22675040253134 L 84.87252824907009 245.149042063548 M 89.42187654559292 238.7650906312683 L 94.04296874999999 232.57101041779424 M 94.04296874999999 232.57101041779424 L 96.90661154455343 228.9812296937886 M 101.8483071414912 222.89579577443504 L 107.37304687499999 216.4142815497127 M 107.37304687499999 216.4142815497127 L 109.9338847093415 213.60219565528564 M 115.23088137746056 207.82278389175474 L 122.46093749999999 200.38851628943792 M 122.46093749999999 200.38851628943792 L 123.86509227450702 199.03578508323056 M 129.51123300269492 193.59641978225125 L 130.6640625 192.48580970937775 M 130.6640625 192.48580970937775 L 138.62060528946157 185.30282436097366 M 144.58145885134806 180.21105539569822 L 148.681640625 176.7410074225204 M 148.681640625 176.7410074225204 L 154.1218535377551 172.41826417064252 M 160.30741642738116 167.60240957053975 L 168.017578125 161.8392252448737 M 168.017578125 161.8392252448737 L 170.2202387431083 160.2882129088854 M 176.63048219686448 155.77441419122243 L 178.271484375 154.61889590540602 M 178.271484375 154.61889590540602 L 186.8620057909468 148.91270681148362 M 193.46995147534062 144.69465610022812 L 199.8046875 140.72004020341365 M 199.8046875 140.72004020341365 L 203.96873803855956 138.24986144882044 M 210.71158124567512 134.24990326350704 L 211.23046875 133.94209122392246 M 211.23046875 133.94209122392246 L 221.447245775861 128.20640412197196 M 228.34863483554818 124.48745432659042 L 235.400390625 120.737332457452 M 235.400390625 120.737332457452 L 239.26966596070895 118.78684314081298 M 246.2704652488584 115.25776261933915 L 248.291015625 114.23920963965747 M 248.291015625 114.23920963965747 L 257.364315652904 109.90062205438016 M 264.4635697188137 106.57491266322741 L 275.537109375 101.54846803425812 M 275.537109375 101.54846803425812 L 275.68317557592627 101.48549809192221 M 282.8826505519851 98.38176484483037 L 290.0390625 95.29659630590191 M 290.0390625 95.29659630590191 L 294.2280647654784 93.58048681863185 M 301.48287916712894 90.60840539350178 L 305.126953125 89.11553680688093 M 305.126953125 89.11553680688093 L 312.9373010118344 86.07313588443135 M 320.24262297684635 83.22746004422856 L 320.80078125 83.01003807151744 M 320.80078125 83.01003807151744 L 331.79150758743276 78.93750307324503 M 339.154203454035 76.24430860053404 L 350.7732039395207 72.14781891810085 M 358.18713867226614 69.5991663754314 L 369.86702619670547 65.67964760185147 M 377.3238594910886 63.25922448864165 L 389.05930436389593 59.509326671727045 M 396.55201284076884 57.2022079293929 L 408.33824501263535 53.61512956520025 M 415.86041152074034 51.40593854304098 L 427.69313623660673 47.97533716740363 M 435.239410463666 45.8500149028925 L 447.1145931878975 42.569399828533236 M 454.6805453179876 40.5151618420558 L 466.59442610480755 37.37799040946845 M 474.1764388835387 35.383367225873315 L 486.12564197844455 32.3835429982404 M 493.7296803115664 30.474563944292182 L 497.16796875 29.611388310127893 M 497.16796875 29.611388310127893 L 505.7018735133561 27.568496978780686 M 513.3264522538353 25.74328492802262 L 521.337890625 23.825464369448866 M 521.337890625 23.825464369448866 L 525.3177130909136 22.916919700797408 M 532.9610745191698 21.172034009112622 L 544.9720710492866 18.430070779322243 M 552.6287768912586 16.745026498789716 L 564.666775879777 14.124152531497375 M 572.3273206906523 12.45632364322043 L 573.193359375 12.2677725190145 M 573.193359375 12.2677725190145 L 584.387849969419 9.94134354257231 M 592.0638436624376 8.346125430608462 L 600 6.696840551626565" stroke-linecap="round" stroke-linejoin="round" stroke-miterlimit="10" stroke-width="2.8" stroke-dasharray=""/></g></g><g id="sketch-5a5947a2"><title>Expression 3</title><path fill="#c74440" stroke="none" paint-order="stroke fill markers" d="" fill-opacity="0.4"/><g><path fill="none" stroke="#c74440" class="dcg-svg-curve" paint-order="fill stroke markers" d=" M 442.8571428571429 44.44444444444446 L 442.8571428571429 44.44444444444446 L 602.9296875 44.44444444444446" stroke-linecap="round" stroke-linejoin="round" stroke-miterlimit="10" stroke-width="7" stroke-dasharray=""/></g></g><g id="sketch-5a5947a2"><title>Expression 4</title><path fill="#c74440" stroke="none" paint-order="stroke fill markers" d="" fill-opacity="0.4"/><g><path fill="none" stroke="#c74440" class="dcg-svg-curve" paint-order="fill stroke markers" d=" M 28.571428571428555 377.77777777777777 L 28.571428571428555 377.77777777777777 L 442.8571428571429 377.77777777777777" stroke-linecap="round" stroke-linejoin="round" stroke-miterlimit="10" stroke-width="7" stroke-dasharray=""/></g></g><g id="sketch-5a5947a2"><title>Expression 5</title><path fill="#000000" stroke="none" paint-order="stroke fill markers" d="" fill-opacity="0.4"/><g><path fill="none" stroke="#000000" class="dcg-svg-curve" paint-order="fill stroke markers" d=" M 442.8571428571429 377.77777777777777 L 442.8571428571429 377.7217777777778 M 442.8571428571429 373.24177777777777 L 442.8571428571429 373.1857777777778 M 442.8571428571429 368.70577777777777 L 442.8571428571429 368.6497777777778 M 442.8571428571429 364.16977777777777 L 442.8571428571429 364.1137777777778 M 442.8571428571429 359.63377777777777 L 442.8571428571429 359.5777777777778 M 442.8571428571429 355.09777777777776 L 442.8571428571429 355.0417777777778 M 442.8571428571429 350.56177777777776 L 442.8571428571429 350.5057777777778 M 442.8571428571429 346.02577777777776 L 442.8571428571429 345.9697777777778 M 442.8571428571429 341.48977777777776 L 442.8571428571429 341.4337777777778 M 442.8571428571429 336.95377777777776 L 442.8571428571429 336.8977777777778 M 442.8571428571429 332.41777777777776 L 442.8571428571429 332.3617777777778 M 442.8571428571429 327.88177777777776 L 442.8571428571429 327.8257777777778 M 442.8571428571429 323.34577777777776 L 442.8571428571429 323.2897777777778 M 442.8571428571429 318.80977777777775 L 442.8571428571429 318.75377777777777 M 442.8571428571429 314.27377777777775 L 442.8571428571429 314.21777777777777 M 442.8571428571429 309.73777777777775 L 442.8571428571429 309.68177777777777 M 442.8571428571429 305.20177777777775 L 442.8571428571429 305.14577777777777 M 442.8571428571429 300.66577777777775 L 442.8571428571429 300.60977777777777 M 442.8571428571429 296.12977777777775 L 442.8571428571429 296.07377777777776 M 442.8571428571429 291.59377777777775 L 442.8571428571429 291.53777777777776 M 442.8571428571429 287.05777777777774 L 442.8571428571429 287.00177777777776 M 442.8571428571429 282.52177777777774 L 442.8571428571429 282.46577777777776 M 442.8571428571429 277.98577777777774 L 442.8571428571429 277.92977777777776 M 442.8571428571429 273.44977777777774 L 442.8571428571429 273.39377777777776 M 442.8571428571429 268.91377777777774 L 442.8571428571429 268.85777777777776 M 442.8571428571429 264.37777777777774 L 442.8571428571429 264.32177777777775 M 442.8571428571429 259.84177777777774 L 442.8571428571429 259.78577777777775 M 442.8571428571429 255.30577777777776 L 442.8571428571429 255.24977777777775 M 442.8571428571429 250.76977777777776 L 442.8571428571429 250.71377777777775 M 442.8571428571429 246.23377777777776 L 442.8571428571429 246.17777777777775 M 442.8571428571429 241.69777777777776 L 442.8571428571429 241.64177777777775 M 442.8571428571429 237.16177777777776 L 442.8571428571429 237.10577777777775 M 442.8571428571429 232.62577777777776 L 442.8571428571429 232.56977777777774 M 442.8571428571429 228.08977777777775 L 442.8571428571429 228.03377777777774 M 442.8571428571429 223.55377777777775 L 442.8571428571429 223.49777777777774 M 442.8571428571429 219.01777777777775 L 442.8571428571429 218.96177777777774 M 442.8571428571429 214.48177777777775 L 442.8571428571429 214.42577777777774 M 442.8571428571429 209.94577777777775 L 442.8571428571429 209.88977777777774 M 442.8571428571429 205.40977777777775 L 442.8571428571429 205.35377777777774 M 442.8571428571429 200.87377777777775 L 442.8571428571429 200.81777777777774 M 442.8571428571429 196.33777777777775 L 442.8571428571429 196.28177777777773 M 442.8571428571429 191.80177777777774 L 442.8571428571429 191.74577777777773 M 442.8571428571429 187.26577777777774 L 442.8571428571429 187.20977777777773 M 442.8571428571429 182.72977777777774 L 442.8571428571429 182.67377777777773 M 442.8571428571429 178.19377777777774 L 442.8571428571429 178.13777777777773 M 442.8571428571429 173.65777777777774 L 442.8571428571429 173.60177777777773 M 442.8571428571429 169.12177777777774 L 442.8571428571429 169.06577777777773 M 442.8571428571429 164.58577777777774 L 442.8571428571429 164.52977777777772 M 442.8571428571429 160.04977777777773 L 442.8571428571429 159.99377777777772 M 442.8571428571429 155.51377777777773 L 442.8571428571429 155.45777777777772 M 442.8571428571429 150.97777777777773 L 442.8571428571429 150.92177777777772 M 442.8571428571429 146.44177777777773 L 442.8571428571429 146.38577777777772 M 442.8571428571429 141.90577777777773 L 442.8571428571429 141.84977777777772 M 442.8571428571429 137.36977777777773 L 442.8571428571429 137.31377777777772 M 442.8571428571429 132.83377777777773 L 442.8571428571429 132.77777777777771 M 442.8571428571429 128.29777777777772 L 442.8571428571429 128.2417777777777 M 442.8571428571429 123.76177777777771 L 442.8571428571429 123.70577777777771 M 442.8571428571429 119.22577777777771 L 442.8571428571429 119.16977777777771 M 442.8571428571429 114.6897777777777 L 442.8571428571429 114.63377777777771 M 442.8571428571429 110.1537777777777 L 442.8571428571429 110.09777777777771 M 442.8571428571429 105.6177777777777 L 442.8571428571429 105.5617777777777 M 442.8571428571429 101.0817777777777 L 442.8571428571429 101.0257777777777 M 442.8571428571429 96.5457777777777 L 442.8571428571429 96.4897777777777 M 442.8571428571429 92.0097777777777 L 442.8571428571429 91.9537777777777 M 442.8571428571429 87.47377777777771 L 442.8571428571429 87.41777777777772 M 442.8571428571429 82.93777777777771 L 442.8571428571429 82.88177777777771 M 442.8571428571429 78.40177777777772 L 442.8571428571429 78.34577777777773 M 442.8571428571429 73.86577777777774 L 442.8571428571429 73.80977777777774 M 442.8571428571429 69.32977777777774 L 442.8571428571429 69.27377777777774 M 442.8571428571429 64.79377777777773 L 442.8571428571429 64.73777777777774 M 442.8571428571429 60.25777777777774 L 442.8571428571429 60.20177777777774 M 442.8571428571429 55.721777777777746 L 442.8571428571429 55.66577777777775 M 442.8571428571429 51.185777777777744 L 442.8571428571429 51.12977777777775 M 442.8571428571429 46.64977777777775 L 442.8571428571429 46.59377777777775" stroke-linecap="round" stroke-linejoin="round" stroke-miterlimit="10" stroke-width="2.8" stroke-dasharray=""/></g></g></g><g id="labels-5a5947a2"/><g id="labels-5a5947a2"/></g></svg>