<svg version="1.1" xmlns="http://www.w3.org/2000/svg" xmlns:xlink="http://www.w3.org/1999/xlink" width="1200" height="800"><defs/><g transform="scale(2,2)"><g id="background-29712030"><rect fill="white" stroke="none" x="0" y="0" width="600" height="400" class="dcg-svg-background"/></g><g id="graphpaper-29712030"><g id="axis-29712030"><g id="yaxis-29712030"><title>Value</title><g><path fill="none" stroke="rgb(0,0,0)" class="dcg-svg-axis-line" paint-order="fill stroke markers" d=" M 29 4 L 29 400" stroke-opacity="0.9" stroke-miterlimit="10" stroke-width="2" stroke-dasharray=""/><g class="dcg-svg-axis-line"><path fill="rgb(0,0,0)" stroke="rgb(0,0,0)" class="dcg-svg-axis-line" paint-order="stroke fill markers" d=" M 29 2 L 33.14110472164033 17.45481322062509 L 24.858895278359668 17.45481322062509 L 29 2 L 33.14110472164033 17.45481322062509" stroke-opacity="0.9" stroke-linejoin="round" stroke-miterlimit="10" stroke-width="2" stroke-dasharray="" fill-opacity="0.9"/></g></g></g><g id="xaxis-29712030"><title>time and effort</title><g><path fill="none" stroke="rgb(0,0,0)" class="dcg-svg-axis-line" paint-order="fill stroke markers" d=" M 0 378 L 596 378" stroke-opacity="0.9" stroke-miterlimit="10" stroke-width="2" stroke-dasharray=""/><g class="dcg-svg-axis-line"><path fill="rgb(0,0,0)" stroke="rgb(0,0,0)" class="dcg-svg-axis-line" paint-order="stroke fill markers" d=" M 598 378 L 582.545186779375 382.1411047216403 L 582.545186779375 373.8588952783597 L 598 378 L 582.545186779375 382.1411047216403" stroke-opacity="0.9" stroke-linejoin="round" stroke-miterlimit="10" stroke-width="2" stroke-dasharray="" fill-opacity="0.9"/></g></g></g><g><g><path fill="none" stroke="rgb(0,0,0)" class="dcg-svg-tickmark" paint-order="fill stroke markers" d="" stroke-opacity="0.9" stroke-miterlimit="2" stroke-width="2" stroke-dasharray=""/></g></g><g class="dcg-svg-axis-label"><text fill="none" stroke="#ffffff" font-family="Arial" font-size="20px" font-style="normal" font-weight="normal" text-decoration="normal" x="457.51953125" y="395.7777777777786" text-anchor="start" stroke-miterlimit="2" stroke-width="3" stroke-dasharray="">time and effort</text><text fill="#000000" stroke="none" font-family="Arial" font-size="20px" font-style="normal" font-weight="normal" text-decoration="normal" x="457.51953125" y="395.7777777777786" text-anchor="start">time and effort</text></g><g class="dcg-svg-axis-label" transform="translate(19.071428571428214,64.66796875) rotate(-90,0,0)"><text fill="none" stroke="#ffffff" font-family="Arial" font-size="20px" font-style="normal" font-weight="normal" text-decoration="normal" x="0" y="0" text-anchor="start" stroke-miterlimit="2" stroke-width="3" stroke-dasharray="">Value</text><text fill="#000000" stroke="none" font-family="Arial" font-size="20px" font-style="normal" font-weight="normal" text-decoration="normal" x="0" y="0" text-anchor="start">Value</text></g></g></g><g id="expressions-29712030"><g id="sketch-29712030"><title>Expression 1</title><path fill="#c74440" stroke="none" paint-order="stroke fill markers" d="" fill-opacity="0.4"/><g><path fill="none" stroke="#c74440" class="dcg-svg-curve" paint-order="fill stroke markers" d=" M 22.723990172689845 405.8 L 24.902343749999996 394.5302664835771 M 24.902343749999996 394.5302664835771 L 25.079673365418888 393.707491711779 M 26.73147083490545 386.04347415440105 L 27.685546874999996 381.61674772005733 M 27.685546874999996 381.61674772005733 L 29.50062638378767 374.0394838747515 M 31.384124747074072 366.4296032686153 L 33.984375 356.63154389649645 M 33.984375 356.63154389649645 L 34.59702091033839 354.53650570836265 M 36.79749380505821 347.01164564058706 L 37.353515625 345.11024235598785 M 37.353515625 345.11024235598785 L 40.51057833949106 335.265082217385 M 43.07183509475853 327.8556233364326 L 44.53125 323.68726743452 M 44.53125 323.68726743452 L 47.34743815941805 316.3024794579454 M 50.26410267157235 309.02603911871466 L 52.587890625 303.4184766469959 M 52.587890625 303.4184766469959 L 55.14630315392673 297.7160927128148 M 58.45513083935956 290.6094874124257 L 61.376953125 284.58136341675623 M 61.376953125 284.58136341675623 L 63.982583033786604 279.6006601546294 M 67.69962587140412 272.69884135108947 L 71.19140625 266.5012555035348 M 71.19140625 266.5012555035348 L 73.88797119398996 262.04753189061125 M 78.02591043003918 255.38956200320158 L 82.03125 249.2267504025316 M 82.03125 249.2267504025316 L 84.87252824907021 245.1490420635481 M 89.42187654559307 238.76509063126844 L 94.04296875 232.57101041779455 M 94.04296875 232.57101041779455 L 96.90661154455358 228.98122969378875 M 101.8483071414914 222.89579577443521 L 107.373046875 216.4142815497131 M 107.373046875 216.4142815497131 L 109.9338847093417 213.6021956552858 M 115.23088137746076 207.8227838917549 L 122.4609375 200.3885162894383 M 122.4609375 200.3885162894383 L 123.86509227450723 199.03578508323076 M 129.51123300269512 193.59641978225144 L 130.6640625 192.48580970937815 M 130.6640625 192.48580970937815 L 138.6206052894618 185.3028243609739 M 144.5814588513483 180.21105539569845 L 148.681640625 176.74100742252082 M 148.681640625 176.74100742252082 L 154.12185353775536 172.41826417064274 M 160.3074164273814 167.60240957054 L 168.017578125 161.83922524487411 M 168.017578125 161.83922524487411 L 170.22023874310855 160.28821290888567 M 176.63048219686476 155.7744141912227 L 178.271484375 154.61889590540648 M 178.271484375 154.61889590540648 L 186.86200579094708 148.9127068114839 M 193.4699514753409 144.69465610022843 L 199.80468750000003 140.7200402034141 M 199.80468750000003 140.7200402034141 L 203.96873803855985 138.24986144882072 M 210.71158124567538 134.24990326350732 L 211.23046875 133.94209122392292 M 211.23046875 133.94209122392292 L 221.4472457758613 128.20640412197227 M 228.34863483554847 124.48745432659074 L 235.400390625 120.73733245745245 M 235.400390625 120.73733245745245 L 239.26966596070923 118.78684314081329 M 246.2704652488587 115.25776261933946 L 248.291015625 114.23920963965793 M 248.291015625 114.23920963965793 L 257.36431565290434 109.9006220543805 M 264.463569718814 106.57491266322776 L 275.537109375 101.54846803425863 M 275.537109375 101.54846803425863 L 275.6831755759266 101.48549809192258 M 282.88265055198536 98.38176484483071 L 290.0390625 95.29659630590237 M 290.0390625 95.29659630590237 L 294.2280647654787 93.58048681863217 M 301.4828791671292 90.60840539350207 L 305.126953125 89.11553680688132 M 305.126953125 89.11553680688132 L 312.9373010118347 86.07313588443165 M 320.24262297684663 83.22746004422886 L 320.80078125000006 83.01003807151784 M 320.80078125000006 83.01003807151784 L 331.79150758743305 78.93750307324541 M 339.15420345403527 76.24430860053444 L 350.773203939521 72.14781891810117 M 358.1871386722664 69.59916637543171 L 369.8670261967058 65.67964760185181 M 377.32385949108897 63.259224488642026 L 389.0593043638963 59.509326671727464 M 396.5520128407692 57.20220792939331 L 408.33824501263564 53.61512956520062 M 415.8604115207406 51.405938543041344 L 427.693136236607 47.97533716740399 M 435.23941046366633 45.85001490289285 L 447.1145931878978 42.56939982853356 M 454.6805453179879 40.51516184205612 L 466.59442610480784 37.377990409468815 M 474.17643888353905 35.383367225873705 L 486.12564197844483 32.38354299824079 M 493.7296803115667 30.47456394429257 L 497.16796875000006 29.611388310128348 M 497.16796875000006 29.611388310128348 L 505.7018735133564 27.568496978781035 M 513.3264522538356 25.74328492802293 L 521.337890625 23.825464369449207 M 521.337890625 23.825464369449207 L 525.3177130909139 22.916919700797695 M 532.9610745191701 21.17203400911294 L 544.9720710492869 18.430070779322616 M 552.6287768912589 16.74502649879009 L 564.6667758797772 14.124152531497723 M 572.3273206906526 12.456323643220763 L 573.193359375 12.267772519014898 M 573.193359375 12.267772519014898 L 584.3878499694193 9.941343542572668 M 592.063843662438 8.346125430608835 L 600 6.6968405516270195" stroke-linecap="round" stroke-linejoin="round" stroke-miterlimit="10" stroke-width="2.8" stroke-dasharray=""/></g></g><g id="sketch-29712030"><title>Expression 2</title><path fill="#2d70b3" stroke="none" paint-order="stroke fill markers" d="" fill-opacity="0.4"/><g><path fill="none" stroke="#2d70b3" class="dcg-svg-curve" paint-order="fill stroke markers" d=" M 71.42857142857116 266.6666666666673 L 74.3767139792256 254.70460766743892 M 76.43022121617568 247.13836515626576 L 77.63671875 242.70130436677147 M 77.63671875 242.70130436677147 L 79.8484841587376 235.30300792241385 M 82.18735629259368 227.82068737234053 L 84.521484375 220.6870453808782 M 84.521484375 220.6870453808782 L 86.14102552166986 216.15343441069666 M 88.81338378666086 208.78340571473908 L 92.28515625 199.86038728687782 M 92.28515625 199.86038728687782 L 93.35283783233386 197.3311315139018 M 96.4028684433121 190.10875968146985 L 100.78125000000001 180.52747255833734 M 100.78125000000001 180.52747255833734 L 101.57167373386707 178.92622717929453 M 105.04196047031756 171.89609844883617 L 105.322265625 171.32825450080435 M 105.322265625 171.32825450080435 L 110.15625 162.24313334540255 M 110.15625 162.24313334540255 L 110.85004781291799 161.03216505184562 M 114.74746460083313 154.22953744324633 L 115.283203125 153.29444892851825 M 115.283203125 153.29444892851825 L 120.556640625 144.72806864260716 M 120.556640625 144.72806864260716 L 121.20826404148346 143.74084211670126 M 125.52711583886621 137.19766863953868 L 126.123046875 136.29481752707133 M 126.123046875 136.29481752707133 L 131.982421875 128.00618230329982 M 131.982421875 128.00618230329982 L 132.63876642274454 127.13888606604539 M 137.36981314932976 120.88726252724626 L 138.28125 119.68288632910804 M 138.28125 119.68288632910804 L 144.873046875 111.54129028819358 M 144.873046875 111.54129028819358 L 145.0916674582155 111.2886986209501 M 150.22240570999907 105.3607035980368 L 151.904296875 103.41746619906377 M 151.904296875 103.41746619906377 L 158.52261485244057 96.2578394413055 M 164.00354833524284 90.65270202126477 L 166.9921875 87.62246085826973 M 166.9921875 87.62246085826973 L 172.8377544820704 82.06764792992797 M 178.61666033499213 76.77103309589226 L 184.130859375 71.85919803866125 M 184.130859375 71.85919803866125 L 187.91782914736532 68.69424920936115 M 193.94799198614214 63.68448498736802 L 203.02734375000003 56.55805803923704 M 203.02734375000003 56.55805803923704 L 203.6531589570104 56.096052750199185 M 209.96056673376003 51.439637053786534 L 212.98828125 49.20444029837057 M 212.98828125 49.20444029837057 L 220.01242412192485 44.318044329232904 M 226.5071963372676 39.928011098027376 L 233.935546875 35.05187550310774 M 233.935546875 35.05187550310774 L 236.85431570219657 33.24227497909801 M 243.51758976330615 29.111127585631582 L 245.068359375 28.149669632610028 M 245.068359375 28.149669632610028 L 254.12294227963693 22.842387443266464 M 260.94454265528935 18.979321292105837 L 268.65234375 14.703874900766891 M 268.65234375 14.703874900766891 L 271.75582802715934 13.073166242903863 M 278.69607759629525 9.426450471403605 L 281.103515625 8.161475467157459 M 281.103515625 8.161475467157459 L 289.69649637177594 3.880186280755603 M 296.7411163794961 0.44031280417386 L 307.470703125 -4.632182123553605 M 307.470703125 -4.632182123553605 L 307.88289288436397 -4.817169574896516" stroke-linecap="round" stroke-linejoin="round" stroke-miterlimit="10" stroke-width="2.8" stroke-dasharray=""/></g></g><g id="sketch-29712030"><title>Expression 3</title><path fill="#2d70b3" stroke="none" paint-order="stroke fill markers" d="" fill-opacity="0.4"/><g><path fill="none" stroke="#2d70b3" class="dcg-svg-curve" paint-order="fill stroke markers" d=" M 114.2857142857141 155.55555555555603 L 117.23666604058789 143.59418925649106 M 119.2879308714233 136.0274093068771 L 120.556640625 131.37038295872466 M 120.556640625 131.37038295872466 L 122.70632917833804 124.1921081250071 M 125.04356088142832 116.70927040750993 L 127.44140625 109.39241888762058 M 127.44140625 109.39241888762058 L 128.9976921046863 105.04215598726643 M 131.6687078431794 97.67158941318353 L 135.205078125 88.59456732070305 M 135.205078125 88.59456732070305 L 136.20887237892117 86.21955515134897 M 139.261022779678 78.99806098939328 L 139.306640625 78.8901275783818 M 139.306640625 78.8901275783818 L 143.701171875 69.2843324291349 M 143.701171875 69.2843324291349 L 144.42749886249058 67.81446906837283 M 147.90069762616483 60.78577855391626 L 148.2421875 60.094707641962714 M 148.2421875 60.094707641962714 L 153.076171875 51.01837674669525 M 153.076171875 51.01837674669525 L 153.7058590534179 49.92029603997722 M 157.60591407409012 43.11918062883109 L 158.20312500000003 42.07773367221591 M 158.20312500000003 42.07773367221591 L 163.4765625 33.518517808861475 M 163.4765625 33.518517808861475 L 164.06419383178923 32.62893542122892 M 168.38539319086553 26.0873120677242 L 169.04296875 25.09184500479114 M 169.04296875 25.09184500479114 L 174.90234375 16.80924691218445 M 174.90234375 16.80924691218445 L 175.49478247219793 16.026928744475704 M 180.2278766733104 9.776855202236733 L 181.201171875 8.491614230815003 M 181.201171875 8.491614230815003 L 187.79296875 0.35519623001340506 M 187.79296875 0.35519623001340506 L 187.94764757487272 0.17658845276479782 M 193.08013145185978 -5.749895264623448 L 193.12352341220995 -5.8" stroke-linecap="round" stroke-linejoin="round" stroke-miterlimit="10" stroke-width="2.8" stroke-dasharray=""/></g></g><g id="sketch-29712030"><title>Expression 4</title><path fill="#c74440" stroke="none" paint-order="stroke fill markers" d="" fill-opacity="0.4"/><g><path fill="none" stroke="#c74440" class="dcg-svg-curve" paint-order="fill stroke markers" d=" M 442.8571428571433 44.4444444444448 L 442.8571428571433 44.4444444444448 L 602.9296875 44.4444444444448" stroke-linecap="round" stroke-linejoin="round" stroke-miterlimit="10" stroke-width="7" stroke-dasharray=""/></g></g><g id="sketch-29712030"><title>Expression 5</title><path fill="#c74440" stroke="none" paint-order="stroke fill markers" d="" fill-opacity="0.4"/><g><path fill="none" stroke="#c74440" class="dcg-svg-curve" paint-order="fill stroke markers" d=" M 28.571428571428214 377.7777777777786 L 28.571428571428214 377.7777777777786 L 442.8571428571433 377.7777777777786" stroke-linecap="round" stroke-linejoin="round" stroke-miterlimit="10" stroke-width="7" stroke-dasharray=""/></g></g><g id="sketch-29712030"><title>Expression 6</title><path fill="#2d70b3" stroke="none" paint-order="stroke fill markers" d="" fill-opacity="0.4"/><g><path fill="none" stroke="#2d70b3" class="dcg-svg-curve" paint-order="fill stroke markers" d=" M 71.42857142857116 266.6666666666673 L 71.42857142857116 266.6666666666673 L 114.28571428571409 266.6666666666673" stroke-linecap="round" stroke-linejoin="round" stroke-miterlimit="10" stroke-width="7" stroke-dasharray=""/></g></g><g id="sketch-29712030"><title>Expression 7</title><path fill="#2d70b3" stroke="none" paint-order="stroke fill markers" d="" fill-opacity="0.4"/><g><path fill="none" stroke="#2d70b3" class="dcg-svg-curve" paint-order="fill stroke markers" d=" M 114.28571428571409 155.55555555555605 L 114.28571428571409 155.55555555555605 L 157.14285714285703 155.55555555555605" stroke-linecap="round" stroke-linejoin="round" stroke-miterlimit="10" stroke-width="7" stroke-dasharray=""/></g></g><g id="sketch-29712030"><title>Expression 8</title><path fill="#2d70b3" stroke="none" paint-order="stroke fill markers" d="" fill-opacity="0.4"/><g><path fill="none" stroke="#2d70b3" class="dcg-svg-curve" paint-order="fill stroke markers" d=" M 157.14285714285703 44.4444444444448 L 157.14285714285703 44.4444444444448 L 442.8571428571433 44.4444444444448" stroke-linecap="round" stroke-linejoin="round" stroke-miterlimit="10" stroke-width="7" stroke-dasharray=""/></g></g><g id="sketch-29712030"><title>Expression 9</title><path fill="#2d70b3" stroke="none" paint-order="stroke fill markers" d="" fill-opacity="0.4"/><g><path fill="none" stroke="#2d70b3" class="dcg-svg-curve" paint-order="fill stroke markers" d=" M 457.1428571428576 44.4444444444448 L 481.7828571428576 44.4444444444448 M 497.4628571428576 44.4444444444448 L 522.1028571428576 44.4444444444448 M 537.7828571428576 44.4444444444448 L 562.4228571428575 44.4444444444448 M 578.1028571428576 44.4444444444448 L 602.34375 44.4444444444448" stroke-linecap="round" stroke-linejoin="round" stroke-miterlimit="10" stroke-width="5.6" stroke-dasharray=""/></g></g><g id="sketch-29712030"><title>Expression 10</title><path fill="#000000" stroke="none" paint-order="stroke fill markers" d="" fill-opacity="0.4"/><g><path fill="none" stroke="#000000" class="dcg-svg-curve" paint-order="fill stroke markers" d=" M 28.571428571428214 44.4444444444448 L 28.627428571428215 44.4444444444448 M 33.107428571428215 44.4444444444448 L 33.16342857142821 44.4444444444448 M 37.64342857142822 44.4444444444448 L 37.699428571428214 44.4444444444448 M 42.17942857142822 44.4444444444448 L 42.235428571428216 44.4444444444448 M 46.71542857142822 44.4444444444448 L 46.77142857142822 44.4444444444448 M 51.25142857142822 44.4444444444448 L 51.30742857142822 44.4444444444448 M 55.78742857142822 44.4444444444448 L 55.84342857142822 44.4444444444448 M 60.323428571428224 44.4444444444448 L 60.37942857142822 44.4444444444448 M 64.85942857142823 44.4444444444448 L 64.91542857142822 44.4444444444448 M 69.39542857142823 44.4444444444448 L 69.45142857142822 44.4444444444448 M 73.93142857142823 44.4444444444448 L 73.98742857142823 44.4444444444448 M 78.46742857142823 44.4444444444448 L 78.52342857142823 44.4444444444448 M 83.00342857142823 44.4444444444448 L 83.05942857142823 44.4444444444448 M 87.53942857142823 44.4444444444448 L 87.59542857142823 44.4444444444448 M 92.07542857142823 44.4444444444448 L 92.13142857142823 44.4444444444448 M 96.61142857142823 44.4444444444448 L 96.66742857142823 44.4444444444448 M 101.14742857142824 44.4444444444448 L 101.20342857142823 44.4444444444448 M 105.68342857142824 44.4444444444448 L 105.73942857142823 44.4444444444448 M 110.21942857142824 44.4444444444448 L 110.27542857142824 44.4444444444448 M 114.75542857142824 44.4444444444448 L 114.81142857142824 44.4444444444448 M 119.29142857142824 44.4444444444448 L 119.34742857142824 44.4444444444448 M 123.82742857142824 44.4444444444448 L 123.88342857142824 44.4444444444448 M 128.36342857142824 44.4444444444448 L 128.41942857142826 44.4444444444448 M 132.89942857142827 44.4444444444448 L 132.95542857142829 44.4444444444448 M 137.4354285714283 44.4444444444448 L 137.49142857142832 44.4444444444448 M 141.97142857142833 44.4444444444448 L 142.02742857142835 44.4444444444448 M 146.50742857142836 44.4444444444448 L 146.56342857142837 44.4444444444448 M 151.0434285714284 44.4444444444448 L 151.0994285714284 44.4444444444448 M 155.57942857142842 44.4444444444448 L 155.63542857142843 44.4444444444448 M 160.11542857142845 44.4444444444448 L 160.17142857142846 44.4444444444448 M 164.65142857142848 44.4444444444448 L 164.7074285714285 44.4444444444448 M 169.1874285714285 44.4444444444448 L 169.24342857142852 44.4444444444448 M 173.72342857142854 44.4444444444448 L 173.77942857142855 44.4444444444448 M 178.25942857142857 44.4444444444448 L 178.31542857142858 44.4444444444448 M 182.7954285714286 44.4444444444448 L 182.8514285714286 44.4444444444448 M 187.3314285714286 44.4444444444448 L 187.38742857142861 44.4444444444448 M 191.86742857142863 44.4444444444448 L 191.92342857142864 44.4444444444448 M 196.40342857142866 44.4444444444448 L 196.45942857142867 44.4444444444448 M 200.93942857142866 44.4444444444448 L 200.99542857142868 44.4444444444448 M 205.47542857142867 44.4444444444448 L 205.53142857142868 44.4444444444448 M 210.01142857142867 44.4444444444448 L 210.06742857142868 44.4444444444448 M 214.54742857142867 44.4444444444448 L 214.60342857142868 44.4444444444448 M 219.08342857142867 44.4444444444448 L 219.13942857142868 44.4444444444448 M 223.61942857142867 44.4444444444448 L 223.67542857142868 44.4444444444448 M 228.15542857142867 44.4444444444448 L 228.21142857142868 44.4444444444448 M 232.6914285714287 44.4444444444448 L 232.7474285714287 44.4444444444448 M 237.22742857142873 44.4444444444448 L 237.28342857142874 44.4444444444448 M 241.76342857142873 44.4444444444448 L 241.81942857142874 44.4444444444448 M 246.29942857142873 44.4444444444448 L 246.35542857142875 44.4444444444448 M 250.83542857142874 44.4444444444448 L 250.89142857142875 44.4444444444448 M 255.37142857142874 44.4444444444448 L 255.42742857142875 44.4444444444448 M 259.90742857142874 44.4444444444448 L 259.9634285714287 44.4444444444448 M 264.44342857142874 44.4444444444448 L 264.4994285714287 44.4444444444448 M 268.97942857142874 44.4444444444448 L 269.0354285714287 44.4444444444448 M 273.51542857142874 44.4444444444448 L 273.5714285714287 44.4444444444448 M 278.05142857142874 44.4444444444448 L 278.1074285714287 44.4444444444448 M 282.58742857142875 44.4444444444448 L 282.64342857142873 44.4444444444448 M 287.12342857142875 44.4444444444448 L 287.17942857142873 44.4444444444448 M 291.65942857142875 44.4444444444448 L 291.71542857142873 44.4444444444448 M 296.19542857142875 44.4444444444448 L 296.25142857142873 44.4444444444448 M 300.73142857142875 44.4444444444448 L 300.78742857142873 44.4444444444448 M 305.26742857142875 44.4444444444448 L 305.32342857142874 44.4444444444448 M 309.80342857142875 44.4444444444448 L 309.85942857142874 44.4444444444448 M 314.33942857142875 44.4444444444448 L 314.39542857142874 44.4444444444448 M 318.87542857142876 44.4444444444448 L 318.93142857142874 44.4444444444448 M 323.41142857142876 44.4444444444448 L 323.46742857142874 44.4444444444448 M 327.94742857142876 44.4444444444448 L 328.00342857142874 44.4444444444448 M 332.48342857142876 44.4444444444448 L 332.53942857142874 44.4444444444448 M 337.01942857142876 44.4444444444448 L 337.07542857142874 44.4444444444448 M 341.55542857142876 44.4444444444448 L 341.61142857142875 44.4444444444448 M 346.09142857142876 44.4444444444448 L 346.14742857142875 44.4444444444448 M 350.62742857142877 44.4444444444448 L 350.68342857142875 44.4444444444448 M 355.16342857142877 44.4444444444448 L 355.21942857142875 44.4444444444448 M 359.69942857142877 44.4444444444448 L 359.75542857142875 44.4444444444448 M 364.23542857142877 44.4444444444448 L 364.29142857142875 44.4444444444448 M 368.77142857142877 44.4444444444448 L 368.82742857142875 44.4444444444448 M 373.3074285714288 44.4444444444448 L 373.36342857142876 44.4444444444448 M 377.8434285714288 44.4444444444448 L 377.89942857142876 44.4444444444448 M 382.3794285714288 44.4444444444448 L 382.43542857142876 44.4444444444448 M 386.9154285714288 44.4444444444448 L 386.97142857142876 44.4444444444448 M 391.4514285714288 44.4444444444448 L 391.50742857142876 44.4444444444448 M 395.9874285714288 44.4444444444448 L 396.04342857142876 44.4444444444448 M 400.5234285714288 44.4444444444448 L 400.57942857142876 44.4444444444448 M 405.0594285714288 44.4444444444448 L 405.11542857142877 44.4444444444448 M 409.5954285714288 44.4444444444448 L 409.65142857142877 44.4444444444448 M 414.1314285714288 44.4444444444448 L 414.18742857142877 44.4444444444448 M 418.6674285714288 44.4444444444448 L 418.72342857142877 44.4444444444448 M 423.2034285714288 44.4444444444448 L 423.25942857142877 44.4444444444448 M 427.7394285714288 44.4444444444448 L 427.7954285714288 44.4444444444448 M 432.2754285714288 44.4444444444448 L 432.3314285714288 44.4444444444448 M 436.8114285714288 44.4444444444448 L 436.8674285714288 44.4444444444448 M 441.3474285714288 44.4444444444448 L 441.4034285714288 44.4444444444448 M 445.8834285714288 44.4444444444448 L 445.9394285714288 44.4444444444448 M 450.4194285714288 44.4444444444448 L 450.4754285714288 44.4444444444448 M 454.9554285714288 44.4444444444448 L 455.0114285714288 44.4444444444448 M 459.4914285714288 44.4444444444448 L 459.5474285714288 44.4444444444448 M 464.0274285714288 44.4444444444448 L 464.0834285714288 44.4444444444448 M 468.5634285714288 44.4444444444448 L 468.6194285714288 44.4444444444448 M 473.0994285714288 44.4444444444448 L 473.1554285714288 44.4444444444448 M 477.6354285714288 44.4444444444448 L 477.6914285714288 44.4444444444448 M 482.1714285714288 44.4444444444448 L 482.2274285714288 44.4444444444448 M 486.7074285714288 44.4444444444448 L 486.7634285714288 44.4444444444448 M 491.2434285714288 44.4444444444448 L 491.2994285714288 44.4444444444448 M 495.7794285714288 44.4444444444448 L 495.8354285714288 44.4444444444448 M 500.3154285714288 44.4444444444448 L 500.3714285714288 44.4444444444448 M 504.8514285714288 44.4444444444448 L 504.9074285714288 44.4444444444448 M 509.3874285714288 44.4444444444448 L 509.4434285714288 44.4444444444448 M 513.9234285714288 44.4444444444448 L 513.9794285714288 44.4444444444448 M 518.4594285714288 44.4444444444448 L 518.5154285714289 44.4444444444448 M 522.9954285714289 44.4444444444448 L 523.0514285714289 44.4444444444448 M 527.5314285714289 44.4444444444448 L 527.587428571429 44.4444444444448 M 532.067428571429 44.4444444444448 L 532.123428571429 44.4444444444448 M 536.603428571429 44.4444444444448 L 536.6594285714291 44.4444444444448 M 541.1394285714291 44.4444444444448 L 541.1954285714291 44.4444444444448 M 545.6754285714292 44.4444444444448 L 545.7314285714292 44.4444444444448 M 550.2114285714292 44.4444444444448 L 550.2674285714293 44.4444444444448 M 554.7474285714293 44.4444444444448 L 554.8034285714293 44.4444444444448 M 559.2834285714293 44.4444444444448 L 559.3394285714294 44.4444444444448 M 563.8194285714294 44.4444444444448 L 563.8754285714294 44.4444444444448 M 568.3554285714293 44.4444444444448 L 568.4114285714294 44.4444444444448 M 572.8914285714293 44.4444444444448 L 572.9474285714293 44.4444444444448 M 577.4274285714293 44.4444444444448 L 577.4834285714294 44.4444444444448 M 581.9634285714293 44.4444444444448 L 582.0194285714293 44.4444444444448 M 586.4994285714292 44.4444444444448 L 586.5554285714293 44.4444444444448 M 591.0354285714292 44.4444444444448 L 591.0914285714292 44.4444444444448 M 595.5714285714291 44.4444444444448 L 595.6274285714292 44.4444444444448" stroke-linecap="round" stroke-linejoin="round" stroke-miterlimit="10" stroke-width="2.8" stroke-dasharray=""/></g></g><g id="sketch-29712030"><title>Expression 11</title><path fill="#2d70b3" stroke="none" paint-order="stroke fill markers" d="" fill-opacity="0.4"/><g><path fill="none" stroke="#2d70b3" class="dcg-svg-curve" paint-order="fill stroke markers" d=" M 28.571428571428214 377.7777777777786 L 43.97142857142822 377.7777777777786 M 53.77142857142822 377.7777777777786 L 69.17142857142821 377.7777777777786" stroke-linecap="round" stroke-linejoin="round" stroke-miterlimit="10" stroke-width="3.5" stroke-dasharray=""/></g></g><g id="sketch-29712030"><title>Expression 12</title><path fill="#000000" stroke="none" paint-order="stroke fill markers" d="" fill-opacity="0.4"/><g><path fill="none" stroke="#000000" class="dcg-svg-curve" paint-order="fill stroke markers" d=" M 442.8571428571433 377.7777777777786 L 442.8571428571433 377.72177777777864 M 442.8571428571433 373.2417777777786 L 442.8571428571433 373.18577777777864 M 442.8571428571433 368.7057777777786 L 442.8571428571433 368.64977777777864 M 442.8571428571433 364.1697777777786 L 442.8571428571433 364.11377777777864 M 442.8571428571433 359.6337777777786 L 442.8571428571433 359.57777777777864 M 442.8571428571433 355.0977777777786 L 442.8571428571433 355.04177777777863 M 442.8571428571433 350.5617777777786 L 442.8571428571433 350.50577777777863 M 442.8571428571433 346.0257777777786 L 442.8571428571433 345.96977777777863 M 442.8571428571433 341.4897777777786 L 442.8571428571433 341.43377777777863 M 442.8571428571433 336.9537777777786 L 442.8571428571433 336.89777777777863 M 442.8571428571433 332.4177777777786 L 442.8571428571433 332.3617777777786 M 442.8571428571433 327.8817777777786 L 442.8571428571433 327.8257777777786 M 442.8571428571433 323.3457777777786 L 442.8571428571433 323.2897777777786 M 442.8571428571433 318.8097777777786 L 442.8571428571433 318.7537777777786 M 442.8571428571433 314.2737777777786 L 442.8571428571433 314.2177777777786 M 442.8571428571433 309.7377777777786 L 442.8571428571433 309.6817777777786 M 442.8571428571433 305.2017777777786 L 442.8571428571433 305.1457777777786 M 442.8571428571433 300.6657777777786 L 442.8571428571433 300.6097777777786 M 442.8571428571433 296.1297777777786 L 442.8571428571433 296.0737777777786 M 442.8571428571433 291.5937777777786 L 442.8571428571433 291.5377777777786 M 442.8571428571433 287.0577777777786 L 442.8571428571433 287.0017777777786 M 442.8571428571433 282.5217777777786 L 442.8571428571433 282.4657777777786 M 442.8571428571433 277.9857777777786 L 442.8571428571433 277.9297777777786 M 442.8571428571433 273.4497777777786 L 442.8571428571433 273.3937777777786 M 442.8571428571433 268.9137777777786 L 442.8571428571433 268.8577777777786 M 442.8571428571433 264.3777777777786 L 442.8571428571433 264.3217777777786 M 442.8571428571433 259.8417777777786 L 442.8571428571433 259.7857777777786 M 442.8571428571433 255.30577777777862 L 442.8571428571433 255.2497777777786 M 442.8571428571433 250.76977777777861 L 442.8571428571433 250.7137777777786 M 442.8571428571433 246.2337777777786 L 442.8571428571433 246.1777777777786 M 442.8571428571433 241.6977777777786 L 442.8571428571433 241.6417777777786 M 442.8571428571433 237.1617777777786 L 442.8571428571433 237.1057777777786 M 442.8571428571433 232.6257777777786 L 442.8571428571433 232.5697777777786 M 442.8571428571433 228.0897777777786 L 442.8571428571433 228.0337777777786 M 442.8571428571433 223.5537777777786 L 442.8571428571433 223.4977777777786 M 442.8571428571433 219.0177777777786 L 442.8571428571433 218.9617777777786 M 442.8571428571433 214.4817777777786 L 442.8571428571433 214.4257777777786 M 442.8571428571433 209.9457777777786 L 442.8571428571433 209.8897777777786 M 442.8571428571433 205.4097777777786 L 442.8571428571433 205.3537777777786 M 442.8571428571433 200.8737777777786 L 442.8571428571433 200.8177777777786 M 442.8571428571433 196.3377777777786 L 442.8571428571433 196.2817777777786 M 442.8571428571433 191.8017777777786 L 442.8571428571433 191.74577777777859 M 442.8571428571433 187.2657777777786 L 442.8571428571433 187.20977777777858 M 442.8571428571433 182.7297777777786 L 442.8571428571433 182.67377777777858 M 442.8571428571433 178.1937777777786 L 442.8571428571433 178.13777777777858 M 442.8571428571433 173.6577777777786 L 442.8571428571433 173.60177777777858 M 442.8571428571433 169.1217777777786 L 442.8571428571433 169.06577777777858 M 442.8571428571433 164.5857777777786 L 442.8571428571433 164.52977777777858 M 442.8571428571433 160.0497777777786 L 442.8571428571433 159.99377777777858 M 442.8571428571433 155.51377777777859 L 442.8571428571433 155.45777777777857 M 442.8571428571433 150.97777777777858 L 442.8571428571433 150.92177777777857 M 442.8571428571433 146.44177777777858 L 442.8571428571433 146.38577777777857 M 442.8571428571433 141.90577777777858 L 442.8571428571433 141.84977777777857 M 442.8571428571433 137.36977777777858 L 442.8571428571433 137.31377777777857 M 442.8571428571433 132.83377777777858 L 442.8571428571433 132.77777777777857 M 442.8571428571433 128.29777777777858 L 442.8571428571433 128.24177777777857 M 442.8571428571433 123.76177777777856 L 442.8571428571433 123.70577777777856 M 442.8571428571433 119.22577777777856 L 442.8571428571433 119.16977777777856 M 442.8571428571433 114.68977777777856 L 442.8571428571433 114.63377777777856 M 442.8571428571433 110.15377777777856 L 442.8571428571433 110.09777777777856 M 442.8571428571433 105.61777777777856 L 442.8571428571433 105.56177777777856 M 442.8571428571433 101.08177777777856 L 442.8571428571433 101.02577777777856 M 442.8571428571433 96.54577777777855 L 442.8571428571433 96.48977777777856 M 442.8571428571433 92.00977777777855 L 442.8571428571433 91.95377777777855 M 442.8571428571433 87.47377777777857 L 442.8571428571433 87.41777777777857 M 442.8571428571433 82.93777777777856 L 442.8571428571433 82.88177777777857 M 442.8571428571433 78.40177777777858 L 442.8571428571433 78.34577777777858 M 442.8571428571433 73.86577777777859 L 442.8571428571433 73.80977777777859 M 442.8571428571433 69.32977777777859 L 442.8571428571433 69.27377777777859 M 442.8571428571433 64.79377777777859 L 442.8571428571433 64.73777777777859 M 442.8571428571433 60.25777777777859 L 442.8571428571433 60.201777777778595 M 442.8571428571433 55.7217777777786 L 442.8571428571433 55.6657777777786 M 442.8571428571433 51.1857777777786 L 442.8571428571433 51.1297777777786 M 442.8571428571433 46.6497777777786 L 442.8571428571433 46.593777777778605" stroke-linecap="round" stroke-linejoin="round" stroke-miterlimit="10" stroke-width="2.8" stroke-dasharray=""/></g></g><g id="sketch-29712030"><title>Expression 13</title><path fill="#000000" stroke="none" paint-order="stroke fill markers" d="" fill-opacity="0.4"/><g><path fill="none" stroke="#000000" class="dcg-svg-curve" paint-order="fill stroke markers" d=" M 157.14285714285703 155.55555555555605 L 157.14285714285703 155.49955555555604 M 157.14285714285703 151.01955555555605 L 157.14285714285703 150.96355555555604 M 157.14285714285703 146.48355555555605 L 157.14285714285703 146.42755555555604 M 157.14285714285703 141.94755555555605 L 157.14285714285703 141.89155555555604 M 157.14285714285703 137.41155555555605 L 157.14285714285703 137.35555555555604 M 157.14285714285703 132.87555555555605 L 157.14285714285703 132.81955555555604 M 157.14285714285703 128.33955555555605 L 157.14285714285703 128.28355555555603 M 157.14285714285703 123.80355555555603 L 157.14285714285703 123.74755555555603 M 157.14285714285703 119.26755555555603 L 157.14285714285703 119.21155555555603 M 157.14285714285703 114.73155555555603 L 157.14285714285703 114.67555555555603 M 157.14285714285703 110.19555555555603 L 157.14285714285703 110.13955555555603 M 157.14285714285703 105.65955555555603 L 157.14285714285703 105.60355555555603 M 157.14285714285703 101.12355555555602 L 157.14285714285703 101.06755555555603 M 157.14285714285703 96.58755555555602 L 157.14285714285703 96.53155555555603 M 157.14285714285703 92.05155555555604 L 157.14285714285703 91.99555555555604 M 157.14285714285703 87.51555555555603 L 157.14285714285703 87.45955555555604 M 157.14285714285703 82.97955555555605 L 157.14285714285703 82.92355555555605 M 157.14285714285703 78.44355555555606 L 157.14285714285703 78.38755555555606 M 157.14285714285703 73.90755555555607 L 157.14285714285703 73.85155555555608 M 157.14285714285703 69.37155555555607 L 157.14285714285703 69.31555555555607 M 157.14285714285703 64.83555555555607 L 157.14285714285703 64.77955555555607 M 157.14285714285703 60.299555555556076 L 157.14285714285703 60.24355555555608 M 157.14285714285703 55.76355555555608 L 157.14285714285703 55.707555555556084 M 157.14285714285703 51.22755555555608 L 157.14285714285703 51.17155555555608 M 157.14285714285703 46.691555555556086 L 157.14285714285703 46.63555555555609" stroke-linecap="round" stroke-linejoin="round" stroke-miterlimit="10" stroke-width="2.8" stroke-dasharray=""/></g></g><g id="sketch-29712030"><title>Expression 14</title><path fill="#000000" stroke="none" paint-order="stroke fill markers" d="" fill-opacity="0.4"/><g><path fill="none" stroke="#000000" class="dcg-svg-curve" paint-order="fill stroke markers" d=" M 114.28571428571409 266.6666666666673 L 114.28571428571409 266.6106666666673 M 114.28571428571409 262.1306666666673 L 114.28571428571409 262.0746666666673 M 114.28571428571409 257.5946666666673 L 114.28571428571409 257.5386666666673 M 114.28571428571409 253.05866666666734 L 114.28571428571409 253.00266666666732 M 114.28571428571409 248.52266666666733 L 114.28571428571409 248.46666666666732 M 114.28571428571409 243.98666666666733 L 114.28571428571409 243.93066666666732 M 114.28571428571409 239.45066666666733 L 114.28571428571409 239.39466666666732 M 114.28571428571409 234.91466666666733 L 114.28571428571409 234.85866666666732 M 114.28571428571409 230.37866666666733 L 114.28571428571409 230.32266666666732 M 114.28571428571409 225.84266666666733 L 114.28571428571409 225.78666666666732 M 114.28571428571409 221.30666666666733 L 114.28571428571409 221.2506666666673 M 114.28571428571409 216.77066666666732 L 114.28571428571409 216.7146666666673 M 114.28571428571409 212.23466666666732 L 114.28571428571409 212.1786666666673 M 114.28571428571409 207.69866666666732 L 114.28571428571409 207.6426666666673 M 114.28571428571409 203.16266666666732 L 114.28571428571409 203.1066666666673 M 114.28571428571409 198.62666666666732 L 114.28571428571409 198.5706666666673 M 114.28571428571409 194.09066666666732 L 114.28571428571409 194.0346666666673 M 114.28571428571409 189.55466666666732 L 114.28571428571409 189.4986666666673 M 114.28571428571409 185.01866666666731 L 114.28571428571409 184.9626666666673 M 114.28571428571409 180.4826666666673 L 114.28571428571409 180.4266666666673 M 114.28571428571409 175.9466666666673 L 114.28571428571409 175.8906666666673 M 114.28571428571409 171.4106666666673 L 114.28571428571409 171.3546666666673 M 114.28571428571409 166.8746666666673 L 114.28571428571409 166.8186666666673 M 114.28571428571409 162.3386666666673 L 114.28571428571409 162.2826666666673 M 114.28571428571409 157.80266666666733 L 114.28571428571409 157.74666666666732" stroke-linecap="round" stroke-linejoin="round" stroke-miterlimit="10" stroke-width="2.8" stroke-dasharray=""/></g></g><g id="sketch-29712030"><title>Expression 15</title><path fill="#000000" stroke="none" paint-order="stroke fill markers" d="" fill-opacity="0.4"/><g><path fill="none" stroke="#000000" class="dcg-svg-curve" paint-order="fill stroke markers" d=" M 71.42857142857116 377.7777777777786 L 71.42857142857116 377.72177777777864 M 71.42857142857116 373.2417777777786 L 71.42857142857116 373.18577777777864 M 71.42857142857116 368.7057777777786 L 71.42857142857116 368.64977777777864 M 71.42857142857116 364.1697777777786 L 71.42857142857116 364.11377777777864 M 71.42857142857116 359.6337777777786 L 71.42857142857116 359.57777777777864 M 71.42857142857116 355.0977777777786 L 71.42857142857116 355.04177777777863 M 71.42857142857116 350.5617777777786 L 71.42857142857116 350.50577777777863 M 71.42857142857116 346.0257777777786 L 71.42857142857116 345.96977777777863 M 71.42857142857116 341.4897777777786 L 71.42857142857116 341.43377777777863 M 71.42857142857116 336.9537777777786 L 71.42857142857116 336.89777777777863 M 71.42857142857116 332.4177777777786 L 71.42857142857116 332.3617777777786 M 71.42857142857116 327.8817777777786 L 71.42857142857116 327.8257777777786 M 71.42857142857116 323.3457777777786 L 71.42857142857116 323.2897777777786 M 71.42857142857116 318.8097777777786 L 71.42857142857116 318.7537777777786 M 71.42857142857116 314.2737777777786 L 71.42857142857116 314.2177777777786 M 71.42857142857116 309.7377777777786 L 71.42857142857116 309.6817777777786 M 71.42857142857116 305.2017777777786 L 71.42857142857116 305.1457777777786 M 71.42857142857116 300.6657777777786 L 71.42857142857116 300.6097777777786 M 71.42857142857116 296.1297777777786 L 71.42857142857116 296.0737777777786 M 71.42857142857116 291.5937777777786 L 71.42857142857116 291.5377777777786 M 71.42857142857116 287.0577777777786 L 71.42857142857116 287.0017777777786 M 71.42857142857116 282.5217777777786 L 71.42857142857116 282.4657777777786 M 71.42857142857116 277.98577777777865 L 71.42857142857116 277.92977777777867 M 71.42857142857116 273.44977777777865 L 71.42857142857116 273.39377777777867 M 71.42857142857116 268.91377777777865 L 71.42857142857116 268.85777777777867" stroke-linecap="round" stroke-linejoin="round" stroke-miterlimit="10" stroke-width="2.8" stroke-dasharray=""/></g></g></g><g id="labels-29712030"/><g id="labels-29712030"/></g></svg>